G04 #@! TF.GenerationSoftware,KiCad,Pcbnew,(5.0.0-3-g5ebb6b6)*
G04 #@! TF.CreationDate,2018-11-27T18:20:38-08:00*
G04 #@! TF.ProjectId,Capper Decapper Solenoid Correction,43617070657220446563617070657220,rev?*
G04 #@! TF.SameCoordinates,Original*
G04 #@! TF.FileFunction,Copper,L1,Top,Signal*
G04 #@! TF.FilePolarity,Positive*
%FSLAX46Y46*%
G04 Gerber Fmt 4.6, Leading zero omitted, Abs format (unit mm)*
G04 Created by KiCad (PCBNEW (5.0.0-3-g5ebb6b6)) date Tuesday, November 27, 2018 at 06:20:38 PM*
%MOMM*%
%LPD*%
G01*
G04 APERTURE LIST*
G04 #@! TA.AperFunction,ComponentPad*
%ADD10R,3.200000X3.200000*%
G04 #@! TD*
G04 #@! TA.AperFunction,ComponentPad*
%ADD11O,3.200000X3.200000*%
G04 #@! TD*
G04 #@! TA.AperFunction,ComponentPad*
%ADD12C,4.400000*%
G04 #@! TD*
G04 #@! TA.AperFunction,Conductor*
%ADD13C,0.100000*%
G04 #@! TD*
G04 #@! TA.AperFunction,ComponentPad*
%ADD14C,1.050000*%
G04 #@! TD*
G04 #@! TA.AperFunction,ComponentPad*
%ADD15R,1.050000X1.500000*%
G04 #@! TD*
G04 #@! TA.AperFunction,ComponentPad*
%ADD16R,1.905000X2.000000*%
G04 #@! TD*
G04 #@! TA.AperFunction,ComponentPad*
%ADD17O,1.905000X2.000000*%
G04 #@! TD*
G04 #@! TA.AperFunction,ComponentPad*
%ADD18C,1.600000*%
G04 #@! TD*
G04 #@! TA.AperFunction,ComponentPad*
%ADD19O,1.600000X1.600000*%
G04 #@! TD*
G04 #@! TA.AperFunction,Conductor*
%ADD20C,2.000000*%
G04 #@! TD*
G04 #@! TA.AperFunction,Conductor*
%ADD21C,1.000000*%
G04 #@! TD*
G04 APERTURE END LIST*
D10*
G04 #@! TO.P,D1,1*
G04 #@! TO.N,Net-(D1-Pad1)*
X176750000Y-69500000D03*
D11*
G04 #@! TO.P,D1,2*
G04 #@! TO.N,Net-(D1-Pad2)*
X176750000Y-82200000D03*
G04 #@! TD*
D12*
G04 #@! TO.P,MH1,1*
G04 #@! TO.N,Net-(MH1-Pad1)*
X169750000Y-83750000D03*
G04 #@! TD*
G04 #@! TO.P,MH2,1*
G04 #@! TO.N,Net-(D1-Pad2)*
X169750000Y-70250000D03*
G04 #@! TD*
G04 #@! TO.P,MH3,1*
G04 #@! TO.N,Net-(MH3-Pad1)*
X199000000Y-70250000D03*
G04 #@! TD*
G04 #@! TO.P,MH4,1*
G04 #@! TO.N,Net-(D1-Pad1)*
X199000000Y-83750000D03*
G04 #@! TD*
D13*
G04 #@! TO.N,Net-(MH1-Pad1)*
G04 #@! TO.C,Q1*
G36*
X187268229Y-83251264D02*
X187293711Y-83255044D01*
X187318700Y-83261303D01*
X187342954Y-83269982D01*
X187366242Y-83280996D01*
X187388337Y-83294239D01*
X187409028Y-83309585D01*
X187428116Y-83326884D01*
X187445415Y-83345972D01*
X187460761Y-83366663D01*
X187474004Y-83388758D01*
X187485018Y-83412046D01*
X187493697Y-83436300D01*
X187499956Y-83461289D01*
X187503736Y-83486771D01*
X187505000Y-83512500D01*
X187505000Y-84487500D01*
X187503736Y-84513229D01*
X187499956Y-84538711D01*
X187493697Y-84563700D01*
X187485018Y-84587954D01*
X187474004Y-84611242D01*
X187460761Y-84633337D01*
X187445415Y-84654028D01*
X187428116Y-84673116D01*
X187409028Y-84690415D01*
X187388337Y-84705761D01*
X187366242Y-84719004D01*
X187342954Y-84730018D01*
X187318700Y-84738697D01*
X187293711Y-84744956D01*
X187268229Y-84748736D01*
X187242500Y-84750000D01*
X186717500Y-84750000D01*
X186691771Y-84748736D01*
X186666289Y-84744956D01*
X186641300Y-84738697D01*
X186617046Y-84730018D01*
X186593758Y-84719004D01*
X186571663Y-84705761D01*
X186550972Y-84690415D01*
X186531884Y-84673116D01*
X186514585Y-84654028D01*
X186499239Y-84633337D01*
X186485996Y-84611242D01*
X186474982Y-84587954D01*
X186466303Y-84563700D01*
X186460044Y-84538711D01*
X186456264Y-84513229D01*
X186455000Y-84487500D01*
X186455000Y-83512500D01*
X186456264Y-83486771D01*
X186460044Y-83461289D01*
X186466303Y-83436300D01*
X186474982Y-83412046D01*
X186485996Y-83388758D01*
X186499239Y-83366663D01*
X186514585Y-83345972D01*
X186531884Y-83326884D01*
X186550972Y-83309585D01*
X186571663Y-83294239D01*
X186593758Y-83280996D01*
X186617046Y-83269982D01*
X186641300Y-83261303D01*
X186666289Y-83255044D01*
X186691771Y-83251264D01*
X186717500Y-83250000D01*
X187242500Y-83250000D01*
X187268229Y-83251264D01*
X187268229Y-83251264D01*
G37*
D14*
G04 #@! TD*
G04 #@! TO.P,Q1,2*
G04 #@! TO.N,Net-(MH1-Pad1)*
X186980000Y-84000000D03*
D13*
G04 #@! TO.N,Net-(Q1-Pad3)*
G04 #@! TO.C,Q1*
G36*
X188538229Y-83251264D02*
X188563711Y-83255044D01*
X188588700Y-83261303D01*
X188612954Y-83269982D01*
X188636242Y-83280996D01*
X188658337Y-83294239D01*
X188679028Y-83309585D01*
X188698116Y-83326884D01*
X188715415Y-83345972D01*
X188730761Y-83366663D01*
X188744004Y-83388758D01*
X188755018Y-83412046D01*
X188763697Y-83436300D01*
X188769956Y-83461289D01*
X188773736Y-83486771D01*
X188775000Y-83512500D01*
X188775000Y-84487500D01*
X188773736Y-84513229D01*
X188769956Y-84538711D01*
X188763697Y-84563700D01*
X188755018Y-84587954D01*
X188744004Y-84611242D01*
X188730761Y-84633337D01*
X188715415Y-84654028D01*
X188698116Y-84673116D01*
X188679028Y-84690415D01*
X188658337Y-84705761D01*
X188636242Y-84719004D01*
X188612954Y-84730018D01*
X188588700Y-84738697D01*
X188563711Y-84744956D01*
X188538229Y-84748736D01*
X188512500Y-84750000D01*
X187987500Y-84750000D01*
X187961771Y-84748736D01*
X187936289Y-84744956D01*
X187911300Y-84738697D01*
X187887046Y-84730018D01*
X187863758Y-84719004D01*
X187841663Y-84705761D01*
X187820972Y-84690415D01*
X187801884Y-84673116D01*
X187784585Y-84654028D01*
X187769239Y-84633337D01*
X187755996Y-84611242D01*
X187744982Y-84587954D01*
X187736303Y-84563700D01*
X187730044Y-84538711D01*
X187726264Y-84513229D01*
X187725000Y-84487500D01*
X187725000Y-83512500D01*
X187726264Y-83486771D01*
X187730044Y-83461289D01*
X187736303Y-83436300D01*
X187744982Y-83412046D01*
X187755996Y-83388758D01*
X187769239Y-83366663D01*
X187784585Y-83345972D01*
X187801884Y-83326884D01*
X187820972Y-83309585D01*
X187841663Y-83294239D01*
X187863758Y-83280996D01*
X187887046Y-83269982D01*
X187911300Y-83261303D01*
X187936289Y-83255044D01*
X187961771Y-83251264D01*
X187987500Y-83250000D01*
X188512500Y-83250000D01*
X188538229Y-83251264D01*
X188538229Y-83251264D01*
G37*
D14*
G04 #@! TD*
G04 #@! TO.P,Q1,3*
G04 #@! TO.N,Net-(Q1-Pad3)*
X188250000Y-84000000D03*
D15*
G04 #@! TO.P,Q1,1*
G04 #@! TO.N,Net-(D1-Pad2)*
X185710000Y-84000000D03*
G04 #@! TD*
D16*
G04 #@! TO.P,Q2,1*
G04 #@! TO.N,Net-(Q1-Pad3)*
X184000000Y-70250000D03*
D17*
G04 #@! TO.P,Q2,2*
G04 #@! TO.N,Net-(D1-Pad1)*
X186540000Y-70250000D03*
G04 #@! TO.P,Q2,3*
G04 #@! TO.N,Net-(MH3-Pad1)*
X189080000Y-70250000D03*
G04 #@! TD*
D18*
G04 #@! TO.P,R1,1*
G04 #@! TO.N,Net-(MH3-Pad1)*
X191750000Y-76750000D03*
D19*
G04 #@! TO.P,R1,2*
G04 #@! TO.N,Net-(Q1-Pad3)*
X181590000Y-76750000D03*
G04 #@! TD*
D20*
G04 #@! TO.N,Net-(D1-Pad1)*
X186540000Y-68677498D02*
X186540000Y-70250000D01*
X185612502Y-67750000D02*
X186540000Y-68677498D01*
X182100000Y-67750000D02*
X185612502Y-67750000D01*
X180350000Y-69500000D02*
X182100000Y-67750000D01*
X176750000Y-69500000D02*
X180350000Y-69500000D01*
X186540000Y-76290000D02*
X186540000Y-73250000D01*
X186540000Y-73250000D02*
X186540000Y-70250000D01*
X194000000Y-83750000D02*
X186540000Y-76290000D01*
X199000000Y-83750000D02*
X194000000Y-83750000D01*
G04 #@! TO.N,Net-(D1-Pad2)*
X169750000Y-75200000D02*
X176750000Y-82200000D01*
X169750000Y-70250000D02*
X169750000Y-75200000D01*
D21*
X178550000Y-84000000D02*
X176750000Y-82200000D01*
X185710000Y-84000000D02*
X178550000Y-84000000D01*
G04 #@! TO.N,Net-(MH1-Pad1)*
X186980000Y-85265002D02*
X186980000Y-84850000D01*
X186495002Y-85750000D02*
X186980000Y-85265002D01*
X174861269Y-85750000D02*
X186495002Y-85750000D01*
X172861269Y-83750000D02*
X174861269Y-85750000D01*
X186980000Y-84850000D02*
X186980000Y-84000000D01*
X169750000Y-83750000D02*
X172861269Y-83750000D01*
D20*
G04 #@! TO.N,Net-(MH3-Pad1)*
X198250000Y-70250000D02*
X191750000Y-76750000D01*
X199000000Y-70250000D02*
X198250000Y-70250000D01*
X199000000Y-70250000D02*
X189080000Y-70250000D01*
G04 #@! TO.N,Net-(Q1-Pad3)*
X181590000Y-72660000D02*
X184000000Y-70250000D01*
X181590000Y-76750000D02*
X181590000Y-72660000D01*
D21*
X188205010Y-84000000D02*
X188250000Y-84000000D01*
X187091196Y-82000000D02*
X188205010Y-83113814D01*
X188205010Y-83113814D02*
X188205010Y-84000000D01*
X185250000Y-82000000D02*
X187091196Y-82000000D01*
X181590000Y-78340000D02*
X185250000Y-82000000D01*
X181590000Y-76750000D02*
X181590000Y-78340000D01*
G04 #@! TD*
M02*
