M48
;DRILL file {KiCad (5.0.0-3-g5ebb6b6)} date Thursday, November 01, 2018 at 10:30:40 AM
;FORMAT={-:-/ absolute / metric / decimal}
FMAT,2
METRIC,TZ
T1C0.400
T2C1.000
T3C1.200
%
G90
G05
M71
T1
X81.75Y-79.25
X81.75Y-84.
X82.25Y-75.5
X84.Y-81.5
X84.25Y-89.75
X85.25Y-88.75
X85.75Y-75.5
X86.25Y-79.25
X86.25Y-84.
X86.316Y-75.5
X90.75Y-82.25
X92.12Y-88.789
X92.25Y-82.75
X93.25Y-76.25
X94.Y-75.25
X94.Y-82.5
X94.25Y-83.5
X94.5Y-101.75
X95.Y-79.25
X95.Y-81.25
X95.5Y-86.75
X96.5Y-79.75
X99.Y-82.5
X100.25Y-88.5
X100.388Y-102.138
X100.5Y-77.75
X102.Y-75.75
X102.Y-94.25
X102.309Y-96.925
X102.75Y-83.75
X102.75Y-89.
X102.75Y-90.
X102.75Y-93.5
X103.Y-92.
X103.5Y-85.212
X104.Y-93.25
X105.Y-75.
X105.25Y-88.25
X105.25Y-102.
X105.5Y-83.5
X105.5Y-84.5
X105.5Y-94.75
X105.5Y-99.5
X105.638Y-96.888
X105.75Y-79.25
X106.Y-90.
X106.5Y-83.5
X106.5Y-84.5
X106.75Y-80.25
X107.Y-94.5
X107.285Y-96.925
X107.727Y-93.775
X108.091Y-91.528
X108.475Y-79.992
X108.75Y-85.212
X109.123Y-92.008
X109.186Y-83.051
X109.248Y-90.503
X109.25Y-93.
X109.5Y-84.
X109.75Y-95.594
X109.75Y-89.638
X110.25Y-78.
X110.5Y-99.325
X110.5Y-102.
X110.612Y-96.362
X110.75Y-95.25
X111.014Y-83.723
X111.25Y-88.533
X111.25Y-87.
X111.789Y-82.91
X112.Y-75.75
X112.233Y-95.05
X112.263Y-97.013
X112.75Y-93.5
X112.751Y-89.941
X112.795Y-88.545
X112.913Y-92.353
X113.059Y-84.11
X113.281Y-91.424
X113.545Y-85.212
X114.171Y-92.95
X114.987Y-101.987
X115.095Y-75.
X115.25Y-88.
X115.25Y-95.
X115.5Y-83.5
X115.5Y-84.5
X115.5Y-99.5
X115.75Y-79.25
X115.862Y-96.362
X116.Y-90.
X116.5Y-83.5
X116.5Y-84.5
X116.75Y-80.25
X117.234Y-94.548
X117.248Y-97.086
X117.55Y-93.599
X118.Y-92.
X118.475Y-80.14
X118.825Y-85.212
X119.Y-93.75
X119.25Y-83.25
X119.25Y-84.25
X119.33Y-90.593
X119.528Y-89.612
X119.551Y-91.684
X120.237Y-101.987
X120.25Y-95.25
X120.5Y-77.75
X120.5Y-92.
X120.5Y-99.5
X120.75Y-82.25
X121.Y-86.
X121.Y-89.
X121.25Y-87.5
X121.402Y-96.341
X121.5Y-83.5
X122.Y-75.75
X122.421Y-94.898
X122.75Y-88.541
X122.75Y-89.75
X122.793Y-96.975
X122.873Y-94.007
X122.972Y-84.062
X123.225Y-92.024
X123.5Y-85.212
X123.875Y-91.264
X124.25Y-93.
X124.75Y-99.5
X125.Y-97.
X125.25Y-102.
X125.255Y-75.25
X125.475Y-88.375
X125.5Y-83.5
X125.5Y-84.5
X125.5Y-95.
X125.75Y-79.25
X125.987Y-96.237
X126.Y-90.
X126.5Y-83.5
X126.5Y-84.5
X126.75Y-80.25
X127.Y-94.577
X127.75Y-93.75
X128.469Y-91.629
X128.725Y-79.992
X128.75Y-85.212
X129.234Y-90.26
X129.25Y-93.
X129.5Y-83.
X129.5Y-84.
X129.5Y-95.5
X130.Y-92.
X130.Y-102.
X130.087Y-89.738
X130.087Y-90.852
X130.335Y-78.
X130.5Y-99.275
X131.054Y-96.295
X131.081Y-83.081
X131.25Y-86.75
X131.5Y-88.75
X132.Y-75.75
X132.Y-95.
X132.25Y-97.
X132.437Y-80.975
X132.75Y-90.5
X132.75Y-92.
X132.75Y-94.
X133.Y-83.75
X133.Y-89.328
X133.75Y-85.212
X134.Y-93.
X134.03Y-91.78
X135.Y-88.
X135.Y-95.
X135.Y-102.
X135.415Y-75.25
X135.5Y-83.5
X135.5Y-84.5
X135.5Y-99.275
X135.75Y-79.5
X136.Y-90.
X136.Y-96.25
X136.5Y-83.5
X136.5Y-84.5
X136.75Y-80.5
X136.961Y-94.254
X137.25Y-97.
X137.955Y-94.146
X138.5Y-80.275
X138.705Y-91.5
X138.75Y-85.5
X139.Y-90.
X139.959Y-91.695
X140.Y-99.75
X140.Y-92.75
X140.064Y-89.875
X140.25Y-95.5
X141.25Y-84.
X141.75Y-89.
X141.75Y-90.25
X142.5Y-83.75
X143.275Y-85.5
X146.75Y-88.5
X146.75Y-91.5
X148.Y-90.
X149.25Y-88.5
X149.25Y-91.5
T2
X94.Y-72.
X96.54Y-72.
X99.08Y-72.
X101.62Y-72.
X104.16Y-72.
X106.7Y-72.
X109.24Y-72.
X111.78Y-72.
X114.32Y-72.
X116.86Y-72.
X119.4Y-72.
X121.94Y-72.
X124.48Y-72.
X127.02Y-72.
X129.56Y-72.
X132.1Y-72.
X134.64Y-72.
X137.18Y-72.
X139.72Y-72.
X142.26Y-72.
X83.2Y-107.
X85.74Y-107.
X88.28Y-107.
X90.82Y-107.
X93.36Y-107.
X95.9Y-107.
X98.44Y-107.
X100.98Y-107.
X103.52Y-107.
X106.06Y-107.
X108.6Y-107.
X111.14Y-107.
X113.68Y-107.
X116.22Y-107.
X118.76Y-107.
X121.3Y-107.
X123.84Y-107.
X126.38Y-107.
X128.92Y-107.
X131.46Y-107.
X134.Y-107.
X136.54Y-107.
X139.08Y-107.
X141.62Y-107.
T3
X150.Y-72.5
X150.Y-76.
T0
M30
